<svg xmlns="http://www.w3.org/2000/svg" xmlns:xlink="http://www.w3.org/1999/xlink" width="500" zoomAndPan="magnify" viewBox="0 0 375 374.999991" height="500" preserveAspectRatio="xMidYMid meet" version="1.0"><defs><g/><clipPath id="b73d055734"><path d="M 87.492188 129.644531 L 315.917969 129.644531 L 315.917969 239.769531 L 87.492188 239.769531 Z M 87.492188 129.644531 " clip-rule="nonzero"/></clipPath><clipPath id="368b137cc1"><path d="M 100.242188 129.644531 L 303.042969 129.644531 C 310.082031 129.644531 315.792969 135.351562 315.792969 142.394531 L 315.792969 227.019531 C 315.792969 234.0625 310.082031 239.769531 303.042969 239.769531 L 100.242188 239.769531 C 93.199219 239.769531 87.492188 234.0625 87.492188 227.019531 L 87.492188 142.394531 C 87.492188 135.351562 93.199219 129.644531 100.242188 129.644531 Z M 100.242188 129.644531 " clip-rule="nonzero"/></clipPath><clipPath id="501289b80c"><path d="M 124 182 L 200 182 L 200 271 L 124 271 Z M 124 182 " clip-rule="nonzero"/></clipPath><clipPath id="46b9c80ffb"><path d="M 229.757812 250.1875 L 166.34375 289.539062 L 122.65625 219.136719 L 186.070312 179.785156 Z M 229.757812 250.1875 " clip-rule="nonzero"/></clipPath><clipPath id="0602293482"><path d="M 193.558594 269.71875 L 127.5 225.835938 C 125.859375 224.75 124.886719 222.902344 124.917969 220.933594 C 124.949219 218.964844 125.976562 217.148438 127.648438 216.113281 L 181.144531 182.914062 C 182.816406 181.878906 184.902344 181.761719 186.675781 182.609375 C 188.453125 183.457031 189.675781 185.148438 189.925781 187.097656 L 199.917969 265.773438 C 200.121094 267.371094 199.375 268.9375 198.003906 269.789062 C 196.636719 270.636719 194.898438 270.609375 193.558594 269.71875 Z M 193.558594 269.71875 " clip-rule="nonzero"/></clipPath><clipPath id="545ec7cb29"><path d="M 31 78 L 104 78 L 104 164 L 31 164 Z M 31 78 " clip-rule="nonzero"/></clipPath><clipPath id="7b7d0c23ec"><path d="M 108.914062 155.6875 L 32.109375 163.957031 L 23.839844 87.152344 L 100.644531 78.878906 Z M 108.914062 155.6875 " clip-rule="nonzero"/></clipPath><clipPath id="df825ae03e"><path d="M 108.914062 155.6875 L 32.109375 163.957031 L 23.839844 87.152344 L 100.644531 78.878906 Z M 108.914062 155.6875 " clip-rule="nonzero"/></clipPath><clipPath id="590f7ffad7"><path d="M 60 105 L 108 105 L 108 161 L 60 161 Z M 60 105 " clip-rule="nonzero"/></clipPath><clipPath id="e9ba37ae31"><path d="M 110.988281 155.863281 L 60.921875 160.152344 L 56.632812 110.085938 L 106.699219 105.796875 Z M 110.988281 155.863281 " clip-rule="nonzero"/></clipPath><clipPath id="b0718c2533"><path d="M 110.988281 155.863281 L 60.921875 160.152344 L 56.632812 110.085938 L 106.699219 105.796875 Z M 110.988281 155.863281 " clip-rule="nonzero"/></clipPath></defs><g clip-path="url(#b73d055734)"><g clip-path="url(#368b137cc1)"><path fill="#271f81" d="M 87.492188 129.644531 L 315.917969 129.644531 L 315.917969 239.769531 L 87.492188 239.769531 Z M 87.492188 129.644531 " fill-opacity="1" fill-rule="nonzero"/></g></g><g clip-path="url(#501289b80c)"><g clip-path="url(#46b9c80ffb)"><g clip-path="url(#0602293482)"><path fill="#271f81" d="M 235.449219 253.355469 L 166.660156 296.042969 L 119.96875 220.804688 L 188.757812 178.117188 Z M 235.449219 253.355469 " fill-opacity="1" fill-rule="nonzero"/></g></g></g><g clip-path="url(#545ec7cb29)"><g clip-path="url(#7b7d0c23ec)"><g clip-path="url(#df825ae03e)"><path fill="#271f81" d="M 55.121094 161.480469 C 51.925781 131.796875 73.4375 105.089844 103.121094 101.894531 L 100.652344 78.949219 C 58.265625 83.515625 27.613281 121.5625 32.179688 163.949219 Z M 55.121094 161.480469 " fill-opacity="1" fill-rule="nonzero"/></g></g></g><g clip-path="url(#590f7ffad7)"><g clip-path="url(#e9ba37ae31)"><g clip-path="url(#b0718c2533)"><path fill="#271f81" d="M 75.644531 158.890625 C 73.972656 139.390625 88.457031 122.191406 107.960938 120.519531 L 106.667969 105.449219 C 78.820312 107.832031 58.183594 132.335938 60.570312 160.183594 Z M 75.644531 158.890625 " fill-opacity="1" fill-rule="nonzero"/></g></g></g><g fill="#fcf9f2" fill-opacity="1"><g transform="translate(96.50474, 203.825133)"><g><path d="M 10.046875 -37.46875 L 10.046875 -8.875 C 10.046875 -7.6875 10.0625 -6.851562 10.09375 -6.375 C 10.164062 -5.65625 10.421875 -5.175781 10.859375 -4.9375 C 11.296875 -4.707031 12.09375 -4.625 13.25 -4.6875 L 13.25 0.15625 C 12.03125 0.289062 10.585938 0.359375 8.921875 0.359375 C 5.179688 0.359375 3.242188 -1.238281 3.109375 -4.4375 C 3.046875 -5.25 3.015625 -6.675781 3.015625 -8.71875 L 3.015625 -37.46875 Z M 10.046875 -37.46875 "/></g></g></g><g fill="#fcf9f2" fill-opacity="1"><g transform="translate(107.362133, 203.825133)"><g><path d="M 3.921875 -36.171875 C 4.640625 -36.867188 5.578125 -37.21875 6.734375 -37.21875 C 7.890625 -37.21875 8.820312 -36.867188 9.53125 -36.171875 C 10.25 -35.472656 10.609375 -34.582031 10.609375 -33.5 C 10.609375 -32.375 10.25 -31.472656 9.53125 -30.796875 C 8.820312 -30.117188 7.890625 -29.78125 6.734375 -29.78125 C 5.578125 -29.78125 4.640625 -30.117188 3.921875 -30.796875 C 3.210938 -31.472656 2.859375 -32.375 2.859375 -33.5 C 2.859375 -34.582031 3.210938 -35.472656 3.921875 -36.171875 Z M 10.25 0 L 3.21875 0 L 3.21875 -27.125 L 10.25 -27.125 Z M 10.25 0 "/></g></g></g><g fill="#fcf9f2" fill-opacity="1"><g transform="translate(117.556806, 203.825133)"><g><path d="M 28.5 -20.234375 C 28.632812 -19.015625 28.703125 -17.367188 28.703125 -15.296875 L 28.703125 0 L 21.671875 0 L 21.671875 -14.328125 C 21.671875 -15.921875 21.632812 -17.175781 21.5625 -18.09375 C 21.320312 -21.289062 19.585938 -22.890625 16.359375 -22.890625 C 14.523438 -22.890625 13.046875 -22.03125 11.921875 -20.3125 C 10.804688 -18.601562 10.25 -15.960938 10.25 -12.390625 L 10.25 0 L 3.21875 0 L 3.21875 -27.125 L 10.25 -27.125 L 10.25 -22.734375 L 12.34375 -25.953125 C 14.101562 -27.210938 16.273438 -27.84375 18.859375 -27.84375 C 21.710938 -27.84375 23.960938 -27.175781 25.609375 -25.84375 C 27.265625 -24.519531 28.226562 -22.648438 28.5 -20.234375 Z M 28.5 -20.234375 "/></g></g></g><g fill="#fcf9f2" fill-opacity="1"><g transform="translate(145.848901, 203.825133)"><g><path d="M 12.484375 -10.703125 L 10.25 -8.265625 L 10.25 0 L 3.21875 0 L 3.21875 -37.46875 L 10.25 -37.46875 L 10.25 -14.734375 L 21.15625 -27.125 L 29.625 -27.125 L 17.59375 -14.53125 L 29.78125 0 L 20.90625 0 Z M 12.484375 -10.703125 "/></g></g></g><g fill="#fcf9f2" fill-opacity="1"><g transform="translate(172.203808, 203.825133)"><g><path d="M 11.625 -22.28125 L 11.625 -9.734375 C 11.625 -8.617188 11.640625 -7.820312 11.671875 -7.34375 C 11.773438 -6.019531 12.164062 -5.160156 12.84375 -4.765625 C 13.53125 -4.378906 14.84375 -4.253906 16.78125 -4.390625 L 16.78125 0.203125 C 15.3125 0.441406 13.765625 0.5625 12.140625 0.5625 C 9.554688 0.5625 7.710938 0.128906 6.609375 -0.734375 C 5.503906 -1.609375 4.863281 -3.03125 4.6875 -5 C 4.625 -5.8125 4.59375 -7.117188 4.59375 -8.921875 L 4.59375 -22.28125 L 0.609375 -22.28125 L 0.609375 -26.921875 L 4.59375 -26.921875 L 4.59375 -33.59375 L 11.625 -33.59375 L 11.625 -26.921875 L 17.234375 -26.921875 L 17.234375 -22.28125 Z M 11.625 -22.28125 "/></g></g></g><g fill="#fcf9f2" fill-opacity="1"><g transform="translate(187.241466, 203.825133)"><g><path d="M 3.921875 -36.171875 C 4.640625 -36.867188 5.578125 -37.21875 6.734375 -37.21875 C 7.890625 -37.21875 8.820312 -36.867188 9.53125 -36.171875 C 10.25 -35.472656 10.609375 -34.582031 10.609375 -33.5 C 10.609375 -32.375 10.25 -31.472656 9.53125 -30.796875 C 8.820312 -30.117188 7.890625 -29.78125 6.734375 -29.78125 C 5.578125 -29.78125 4.640625 -30.117188 3.921875 -30.796875 C 3.210938 -31.472656 2.859375 -32.375 2.859375 -33.5 C 2.859375 -34.582031 3.210938 -35.472656 3.921875 -36.171875 Z M 10.25 0 L 3.21875 0 L 3.21875 -27.125 L 10.25 -27.125 Z M 10.25 0 "/></g></g></g><g fill="#fcf9f2" fill-opacity="1"><g transform="translate(197.436134, 203.825133)"><g><path d="M 28.5 -20.234375 C 28.632812 -19.015625 28.703125 -17.367188 28.703125 -15.296875 L 28.703125 0 L 21.671875 0 L 21.671875 -14.328125 C 21.671875 -15.921875 21.632812 -17.175781 21.5625 -18.09375 C 21.320312 -21.289062 19.585938 -22.890625 16.359375 -22.890625 C 14.523438 -22.890625 13.046875 -22.03125 11.921875 -20.3125 C 10.804688 -18.601562 10.25 -15.960938 10.25 -12.390625 L 10.25 0 L 3.21875 0 L 3.21875 -27.125 L 10.25 -27.125 L 10.25 -22.734375 L 12.34375 -25.953125 C 14.101562 -27.210938 16.273438 -27.84375 18.859375 -27.84375 C 21.710938 -27.84375 23.960938 -27.175781 25.609375 -25.84375 C 27.265625 -24.519531 28.226562 -22.648438 28.5 -20.234375 Z M 28.5 -20.234375 "/></g></g></g><g fill="#fcf9f2" fill-opacity="1"><g transform="translate(225.728226, 203.825133)"><g><path d="M 29.578125 -27.125 L 29.578125 -6.78125 C 29.578125 -4.269531 29.554688 -2.519531 29.515625 -1.53125 C 29.378906 2.613281 28.046875 5.738281 25.515625 7.84375 C 22.984375 9.957031 19.523438 11.015625 15.140625 11.015625 C 11.203125 11.015625 8.125 10.210938 5.90625 8.609375 C 3.695312 7.015625 2.441406 4.722656 2.140625 1.734375 L 2.09375 1.21875 L 8.921875 1.21875 L 8.96875 1.6875 C 9.144531 2.9375 9.785156 3.925781 10.890625 4.65625 C 11.992188 5.394531 13.445312 5.765625 15.25 5.765625 C 17.457031 5.765625 19.179688 5.210938 20.421875 4.109375 C 21.660156 3.003906 22.347656 1.378906 22.484375 -0.765625 C 22.515625 -1.441406 22.53125 -2.546875 22.53125 -4.078125 L 22.53125 -4.734375 L 20.5 -1.734375 C 18.863281 -0.472656 16.617188 0.15625 13.765625 0.15625 C 9.992188 0.15625 6.984375 -1.070312 4.734375 -3.53125 C 2.492188 -6 1.375 -9.238281 1.375 -13.25 C 1.375 -17.945312 2.613281 -21.550781 5.09375 -24.0625 C 7.570312 -26.582031 10.664062 -27.84375 14.375 -27.84375 C 17.164062 -27.84375 19.289062 -27.332031 20.75 -26.3125 L 22.53125 -23.5 L 22.53125 -27.125 Z M 10.5 -7.234375 C 11.726562 -5.609375 13.394531 -4.796875 15.5 -4.796875 C 17.601562 -4.796875 19.300781 -5.515625 20.59375 -6.953125 C 21.882812 -8.398438 22.53125 -10.6875 22.53125 -13.8125 L 22.53125 -14.578125 C 22.53125 -17.398438 21.867188 -19.488281 20.546875 -20.84375 C 19.222656 -22.207031 17.625 -22.890625 15.75 -22.890625 C 13.613281 -22.890625 11.898438 -22.132812 10.609375 -20.625 C 9.316406 -19.113281 8.671875 -16.863281 8.671875 -13.875 C 8.671875 -11.082031 9.28125 -8.867188 10.5 -7.234375 Z M 10.5 -7.234375 "/></g></g></g><g fill="#fcf9f2" fill-opacity="1"><g transform="translate(255.243789, 203.825133)"><g><path d="M 27.84375 -14.125 C 27.84375 -13.132812 27.804688 -12.332031 27.734375 -11.71875 L 8.46875 -11.71875 C 8.875 -6.726562 10.960938 -4.234375 14.734375 -4.234375 C 16.265625 -4.234375 17.53125 -4.640625 18.53125 -5.453125 C 19.53125 -6.265625 20.148438 -7.382812 20.390625 -8.8125 L 27.421875 -8.8125 C 26.742188 -5.726562 25.257812 -3.367188 22.96875 -1.734375 C 20.675781 -0.0976562 17.878906 0.71875 14.578125 0.71875 C 10.671875 0.71875 7.492188 -0.492188 5.046875 -2.921875 C 2.597656 -5.359375 1.375 -8.867188 1.375 -13.453125 C 1.375 -17.671875 2.640625 -21.125 5.171875 -23.8125 C 7.703125 -26.5 11.023438 -27.84375 15.140625 -27.84375 C 19.117188 -27.84375 22.226562 -26.53125 24.46875 -23.90625 C 26.71875 -21.289062 27.84375 -18.03125 27.84375 -14.125 Z M 14.84375 -22.890625 C 11.332031 -22.890625 9.273438 -20.695312 8.671875 -16.3125 L 20.59375 -16.3125 C 20.125 -20.695312 18.207031 -22.890625 14.84375 -22.890625 Z M 14.84375 -22.890625 "/></g></g></g><g fill="#fcf9f2" fill-opacity="1"><g transform="translate(281.343778, 203.825133)"><g><path d="M 17.03125 -27.78125 C 17.8125 -27.78125 18.472656 -27.710938 19.015625 -27.578125 L 19.015625 -21.921875 C 16.023438 -22.128906 13.816406 -21.492188 12.390625 -20.015625 C 10.960938 -18.535156 10.25 -16.007812 10.25 -12.4375 L 10.25 0 L 3.21875 0 L 3.21875 -27.125 L 10.25 -27.125 L 10.25 -22.171875 L 12.390625 -25.953125 C 13.710938 -27.171875 15.257812 -27.78125 17.03125 -27.78125 Z M 17.03125 -27.78125 "/></g></g></g><g fill="#fcf9f2" fill-opacity="1"><g transform="translate(258.03971, 157.102682)"><g><path d="M 1.765625 -3.734375 C 2.210938 -4.179688 2.785156 -4.40625 3.484375 -4.40625 C 4.191406 -4.40625 4.769531 -4.179688 5.21875 -3.734375 C 5.664062 -3.285156 5.890625 -2.707031 5.890625 -2 C 5.890625 -1.289062 5.664062 -0.710938 5.21875 -0.265625 C 4.769531 0.179688 4.191406 0.40625 3.484375 0.40625 C 2.785156 0.40625 2.210938 0.179688 1.765625 -0.265625 C 1.328125 -0.710938 1.109375 -1.289062 1.109375 -2 C 1.109375 -2.707031 1.328125 -3.285156 1.765625 -3.734375 Z M 1.765625 -3.734375 "/></g></g></g><g fill="#fcf9f2" fill-opacity="1"><g transform="translate(263.161496, 157.102682)"><g><path d="M 1.765625 -3.734375 C 2.210938 -4.179688 2.785156 -4.40625 3.484375 -4.40625 C 4.191406 -4.40625 4.769531 -4.179688 5.21875 -3.734375 C 5.664062 -3.285156 5.890625 -2.707031 5.890625 -2 C 5.890625 -1.289062 5.664062 -0.710938 5.21875 -0.265625 C 4.769531 0.179688 4.191406 0.40625 3.484375 0.40625 C 2.785156 0.40625 2.210938 0.179688 1.765625 -0.265625 C 1.328125 -0.710938 1.109375 -1.289062 1.109375 -2 C 1.109375 -2.707031 1.328125 -3.285156 1.765625 -3.734375 Z M 1.765625 -3.734375 "/></g></g></g><g fill="#fcf9f2" fill-opacity="1"><g transform="translate(268.283282, 157.102682)"><g><path d="M 1.765625 -3.734375 C 2.210938 -4.179688 2.785156 -4.40625 3.484375 -4.40625 C 4.191406 -4.40625 4.769531 -4.179688 5.21875 -3.734375 C 5.664062 -3.285156 5.890625 -2.707031 5.890625 -2 C 5.890625 -1.289062 5.664062 -0.710938 5.21875 -0.265625 C 4.769531 0.179688 4.191406 0.40625 3.484375 0.40625 C 2.785156 0.40625 2.210938 0.179688 1.765625 -0.265625 C 1.328125 -0.710938 1.109375 -1.289062 1.109375 -2 C 1.109375 -2.707031 1.328125 -3.285156 1.765625 -3.734375 Z M 1.765625 -3.734375 "/></g></g></g><g fill="#fcf9f2" fill-opacity="1"><g transform="translate(273.405068, 157.102682)"><g><path d="M 1.765625 -3.734375 C 2.210938 -4.179688 2.785156 -4.40625 3.484375 -4.40625 C 4.191406 -4.40625 4.769531 -4.179688 5.21875 -3.734375 C 5.664062 -3.285156 5.890625 -2.707031 5.890625 -2 C 5.890625 -1.289062 5.664062 -0.710938 5.21875 -0.265625 C 4.769531 0.179688 4.191406 0.40625 3.484375 0.40625 C 2.785156 0.40625 2.210938 0.179688 1.765625 -0.265625 C 1.328125 -0.710938 1.109375 -1.289062 1.109375 -2 C 1.109375 -2.707031 1.328125 -3.285156 1.765625 -3.734375 Z M 1.765625 -3.734375 "/></g></g></g><g fill="#271f81" fill-opacity="1"><g transform="translate(211.900171, 265.062711)"><g><path d="M 24.484375 -15.65625 L 19.5 0 L 14.921875 0 L 12.265625 -11.921875 L 9.59375 0 L 4.96875 0 L 0 -15.65625 L 4.53125 -15.65625 L 7.296875 -3.390625 L 9.859375 -15.59375 L 14.734375 -15.59375 L 17.390625 -3.40625 L 20.125 -15.65625 Z M 24.484375 -15.65625 "/></g></g></g><g fill="#271f81" fill-opacity="1"><g transform="translate(234.406092, 265.062711)"><g><path d="M 2.9375 -13.78125 C 4.375 -15.300781 6.363281 -16.0625 8.90625 -16.0625 C 11.457031 -16.0625 13.445312 -15.300781 14.875 -13.78125 C 16.3125 -12.257812 17.03125 -10.273438 17.03125 -7.828125 C 17.03125 -5.390625 16.3125 -3.40625 14.875 -1.875 C 13.445312 -0.351562 11.457031 0.40625 8.90625 0.40625 C 6.363281 0.40625 4.375 -0.351562 2.9375 -1.875 C 1.507812 -3.40625 0.796875 -5.390625 0.796875 -7.828125 C 0.796875 -10.273438 1.507812 -12.257812 2.9375 -13.78125 Z M 6.046875 -3.859375 C 6.742188 -2.910156 7.695312 -2.4375 8.90625 -2.4375 C 10.125 -2.4375 11.082031 -2.910156 11.78125 -3.859375 C 12.476562 -4.816406 12.828125 -6.140625 12.828125 -7.828125 C 12.828125 -9.515625 12.476562 -10.832031 11.78125 -11.78125 C 11.082031 -12.726562 10.125 -13.203125 8.90625 -13.203125 C 7.695312 -13.203125 6.742188 -12.726562 6.046875 -11.78125 C 5.347656 -10.832031 5 -9.515625 5 -7.828125 C 5 -6.140625 5.347656 -4.816406 6.046875 -3.859375 Z M 6.046875 -3.859375 "/></g></g></g><g fill="#271f81" fill-opacity="1"><g transform="translate(250.292638, 265.062711)"><g><path d="M 2.9375 -13.78125 C 4.375 -15.300781 6.363281 -16.0625 8.90625 -16.0625 C 11.457031 -16.0625 13.445312 -15.300781 14.875 -13.78125 C 16.3125 -12.257812 17.03125 -10.273438 17.03125 -7.828125 C 17.03125 -5.390625 16.3125 -3.40625 14.875 -1.875 C 13.445312 -0.351562 11.457031 0.40625 8.90625 0.40625 C 6.363281 0.40625 4.375 -0.351562 2.9375 -1.875 C 1.507812 -3.40625 0.796875 -5.390625 0.796875 -7.828125 C 0.796875 -10.273438 1.507812 -12.257812 2.9375 -13.78125 Z M 6.046875 -3.859375 C 6.742188 -2.910156 7.695312 -2.4375 8.90625 -2.4375 C 10.125 -2.4375 11.082031 -2.910156 11.78125 -3.859375 C 12.476562 -4.816406 12.828125 -6.140625 12.828125 -7.828125 C 12.828125 -9.515625 12.476562 -10.832031 11.78125 -11.78125 C 11.082031 -12.726562 10.125 -13.203125 8.90625 -13.203125 C 7.695312 -13.203125 6.742188 -12.726562 6.046875 -11.78125 C 5.347656 -10.832031 5 -9.515625 5 -7.828125 C 5 -6.140625 5.347656 -4.816406 6.046875 -3.859375 Z M 6.046875 -3.859375 "/></g></g></g><g fill="#271f81" fill-opacity="1"><g transform="translate(266.179184, 265.062711)"><g><path d="M 25.09375 -12.1875 C 25.195312 -11.519531 25.25 -10.566406 25.25 -9.328125 L 25.25 0 L 21.1875 0 L 21.1875 -8.15625 C 21.1875 -9.15625 21.144531 -10.003906 21.0625 -10.703125 C 20.851562 -12.367188 19.972656 -13.203125 18.421875 -13.203125 C 16.515625 -13.203125 15.5625 -11.476562 15.5625 -8.03125 L 15.5625 0 L 11.53125 0 L 11.53125 -8.15625 C 11.53125 -9.15625 11.492188 -10.003906 11.421875 -10.703125 C 11.203125 -12.367188 10.304688 -13.203125 8.734375 -13.203125 C 6.847656 -13.203125 5.90625 -11.476562 5.90625 -8.03125 L 5.90625 0 L 1.859375 0 L 1.859375 -15.65625 L 5.90625 -15.65625 L 5.90625 -13.265625 L 7.0625 -15.15625 C 7.925781 -15.757812 9.035156 -16.0625 10.390625 -16.0625 C 11.617188 -16.0625 12.640625 -15.789062 13.453125 -15.25 C 14.273438 -14.71875 14.851562 -14 15.1875 -13.09375 L 16.71875 -15.15625 C 17.570312 -15.757812 18.6875 -16.0625 20.0625 -16.0625 C 21.5 -16.0625 22.644531 -15.695312 23.5 -14.96875 C 24.363281 -14.25 24.894531 -13.320312 25.09375 -12.1875 Z M 25.09375 -12.1875 "/></g></g></g><g fill="#271f81" fill-opacity="1"><g transform="translate(291.185761, 265.062711)"><g><path d="M 10.9375 0 L 10.65625 -2.296875 L 9.890625 -0.625 C 8.867188 0.0625 7.570312 0.40625 6 0.40625 C 4.570312 0.40625 3.375 0.00390625 2.40625 -0.796875 C 1.445312 -1.597656 0.96875 -2.71875 0.96875 -4.15625 C 0.96875 -5.875 1.695312 -7.195312 3.15625 -8.125 C 4.625 -9.0625 6.769531 -9.53125 9.59375 -9.53125 L 10.59375 -9.53125 L 10.59375 -9.859375 C 10.59375 -10.484375 10.570312 -10.972656 10.53125 -11.328125 C 10.394531 -12.578125 9.59375 -13.203125 8.125 -13.203125 C 6.488281 -13.203125 5.613281 -12.320312 5.5 -10.5625 L 1.5625 -10.53125 C 1.613281 -12.257812 2.265625 -13.613281 3.515625 -14.59375 C 4.765625 -15.570312 6.347656 -16.0625 8.265625 -16.0625 C 12.171875 -16.0625 14.257812 -14.519531 14.53125 -11.4375 C 14.59375 -10.695312 14.625 -9.894531 14.625 -9.03125 L 14.625 -3.96875 C 14.625 -2.769531 14.722656 -1.445312 14.921875 0 Z M 7.5625 -2.4375 C 8.425781 -2.4375 9.144531 -2.726562 9.71875 -3.3125 C 10.300781 -3.90625 10.59375 -4.722656 10.59375 -5.765625 L 10.59375 -7.03125 C 6.976562 -7.289062 5.171875 -6.4375 5.171875 -4.46875 C 5.171875 -3.113281 5.96875 -2.4375 7.5625 -2.4375 Z M 7.5625 -2.4375 "/></g></g></g><g fill="#271f81" fill-opacity="1"><g transform="translate(305.77784, 265.062711)"><g><path d="M 2.265625 -20.875 C 2.679688 -21.28125 3.222656 -21.484375 3.890625 -21.484375 C 4.554688 -21.484375 5.09375 -21.28125 5.5 -20.875 C 5.914062 -20.46875 6.125 -19.953125 6.125 -19.328125 C 6.125 -18.679688 5.914062 -18.160156 5.5 -17.765625 C 5.09375 -17.378906 4.554688 -17.1875 3.890625 -17.1875 C 3.222656 -17.1875 2.679688 -17.378906 2.265625 -17.765625 C 1.847656 -18.160156 1.640625 -18.679688 1.640625 -19.328125 C 1.640625 -19.953125 1.847656 -20.46875 2.265625 -20.875 Z M 5.90625 0 L 1.859375 0 L 1.859375 -15.65625 L 5.90625 -15.65625 Z M 5.90625 0 "/></g></g></g></svg>